<svg width="16" height="16" viewBox="0 0 16 16" fill="none" xmlns="http://www.w3.org/2000/svg">
<path fill-rule="evenodd" clip-rule="evenodd" d="M1.99996 3.33317V13.9998H14V3.33317H1.99996ZM0.666626 2.73317C0.666626 2.32816 0.994948 1.99984 1.39996 1.99984H14.6C15.005 1.99984 15.3333 2.32816 15.3333 2.73317V14.5998C15.3333 15.0048 15.005 15.3332 14.6 15.3332H1.39996C0.99495 15.3332 0.666626 15.0048 0.666626 14.5998V2.73317Z" fill="#B6B3B3"/>
<path fill-rule="evenodd" clip-rule="evenodd" d="M10.4559 8.34681C10.7245 8.59863 10.7381 9.02052 10.4863 9.28913L8.03495 11.9039C7.74523 12.213 7.25469 12.213 6.96497 11.9039L5.5136 10.3558C5.26178 10.0872 5.27539 9.6653 5.544 9.41348C5.81261 9.16166 6.2345 9.17527 6.48632 9.44388L7.49996 10.5251L9.5136 8.37721C9.76542 8.1086 10.1873 8.09499 10.4559 8.34681Z" fill="#B6B3B3"/>
<path fill-rule="evenodd" clip-rule="evenodd" d="M4.33329 0.666504C4.70148 0.666504 4.99996 0.964981 4.99996 1.33317V3.33317C4.99996 3.70136 4.70148 3.99984 4.33329 3.99984C3.9651 3.99984 3.66663 3.70136 3.66663 3.33317V1.33317C3.66663 0.964981 3.9651 0.666504 4.33329 0.666504Z" fill="#B6B3B3"/>
<path fill-rule="evenodd" clip-rule="evenodd" d="M11.6666 0.666504C12.0348 0.666504 12.3333 0.964981 12.3333 1.33317V3.33317C12.3333 3.70136 12.0348 3.99984 11.6666 3.99984C11.2984 3.99984 11 3.70136 11 3.33317V1.33317C11 0.964981 11.2984 0.666504 11.6666 0.666504Z" fill="#B6B3B3"/>
<path fill-rule="evenodd" clip-rule="evenodd" d="M0.666626 5.6665C0.666626 5.29831 0.965103 4.99984 1.33329 4.99984H14.6666C15.0348 4.99984 15.3333 5.29831 15.3333 5.6665C15.3333 6.03469 15.0348 6.33317 14.6666 6.33317H1.33329C0.965103 6.33317 0.666626 6.03469 0.666626 5.6665Z" fill="#B6B3B3"/>
</svg>
