<svg width="14" height="14" viewBox="0 0 14 14" fill="none" xmlns="http://www.w3.org/2000/svg">
<path fill-rule="evenodd" clip-rule="evenodd" d="M12.9462 1.05389C13.2847 1.39234 13.2847 1.94109 12.9462 2.27954L2.27954 12.9462C1.94109 13.2847 1.39234 13.2847 1.05389 12.9462C0.715435 12.6078 0.715435 12.059 1.05389 11.7206L11.7206 1.05389C12.059 0.715435 12.6078 0.715435 12.9462 1.05389Z" fill="#5B5555"/>
<path fill-rule="evenodd" clip-rule="evenodd" d="M1.05389 1.05389C1.39234 0.715435 1.94109 0.715435 2.27954 1.05389L12.9462 11.7206C13.2847 12.059 13.2847 12.6078 12.9462 12.9462C12.6078 13.2847 12.059 13.2847 11.7206 12.9462L1.05389 2.27954C0.715435 1.94109 0.715435 1.39234 1.05389 1.05389Z" fill="#5B5555"/>
</svg>
