<svg width="17" height="16" viewBox="0 0 17 16" fill="none" xmlns="http://www.w3.org/2000/svg">
<path fill-rule="evenodd" clip-rule="evenodd" d="M1.69995 8.00003C1.69995 7.55821 2.05812 7.20003 2.49995 7.20003H14.5C14.9418 7.20003 15.3 7.55821 15.3 8.00003C15.3 8.44186 14.9418 8.80003 14.5 8.80003H2.49995C2.05812 8.80003 1.69995 8.44186 1.69995 8.00003Z" fill="#5B5555"/>
<path fill-rule="evenodd" clip-rule="evenodd" d="M8.60093 2.10101C8.91335 1.78859 9.41988 1.78859 9.7323 2.10101L15.0656 7.43435C15.3781 7.74677 15.3781 8.2533 15.0656 8.56572L9.7323 13.8991C9.41988 14.2115 8.91335 14.2115 8.60093 13.8991C8.28851 13.5866 8.28851 13.0801 8.60093 12.7677L13.3686 8.00003L8.60093 3.23238C8.28851 2.91997 8.28851 2.41343 8.60093 2.10101Z" fill="#5B5555"/>
</svg>
