<svg width="17" height="16" viewBox="0 0 17 16" fill="none" xmlns="http://www.w3.org/2000/svg">
<path fill-rule="evenodd" clip-rule="evenodd" d="M1.69995 8.00003C1.69995 7.55821 2.05812 7.20003 2.49995 7.20003H14.5C14.9418 7.20003 15.3 7.55821 15.3 8.00003C15.3 8.44186 14.9418 8.80003 14.5 8.80003H2.49995C2.05812 8.80003 1.69995 8.44186 1.69995 8.00003Z" fill="#5B5555"/>
<path fill-rule="evenodd" clip-rule="evenodd" d="M8.39897 2.10101C8.71139 2.41343 8.71139 2.91997 8.39897 3.23238L3.63132 8.00003L8.39897 12.7677C8.71139 13.0801 8.71139 13.5866 8.39897 13.8991C8.08655 14.2115 7.58002 14.2115 7.2676 13.8991L1.93427 8.56572C1.62185 8.2533 1.62185 7.74677 1.93427 7.43435L7.2676 2.10101C7.58002 1.78859 8.08655 1.78859 8.39897 2.10101Z" fill="#5B5555"/>
</svg>
